<svg id="图层_1" data-name="图层 1" xmlns="http://www.w3.org/2000/svg" xmlns:xlink="http://www.w3.org/1999/xlink" viewBox="0 0 1030.76 1030.76"><defs><style>.cls-1{fill:url(#白色_黑色);}.cls-2,.cls-4,.cls-8{opacity:0.4;}.cls-2{fill:url(#未命名的渐变_23);}.cls-3{opacity:0.1;fill:url(#未命名的渐变_23-2);}.cls-4{fill:url(#未命名的渐变_23-3);}.cls-5{opacity:0.8;fill:url(#未命名的渐变_23-4);}.cls-6{opacity:0.3;fill:url(#未命名的渐变_23-5);}.cls-7{fill:url(#未命名的渐变_23-6);}.cls-8{fill:url(#未命名的渐变_23-7);}.cls-9{opacity:0.2;fill:url(#未命名的渐变_23-8);}.cls-10,.cls-11{opacity:0.6;}.cls-10{fill:url(#未命名的渐变_23-9);}.cls-11{fill:url(#未命名的渐变_23-10);}.cls-12{opacity:0.02;fill:url(#未命名的渐变_23-11);}.cls-13{opacity:0.04;fill:url(#未命名的渐变_23-12);}</style><linearGradient id="白色_黑色" x1="-768.25" y1="1691.73" x2="1313.34" y2="-215.89" gradientUnits="userSpaceOnUse"><stop offset="0" stop-color="#fff"/><stop offset="1" stop-color="#231815"/></linearGradient><linearGradient id="未命名的渐变_23" x1="97.53" y1="308.92" x2="505.88" y2="308.92" gradientUnits="userSpaceOnUse"><stop offset="0" stop-color="#fff"/><stop offset="1" stop-color="#fff" stop-opacity="0"/></linearGradient><linearGradient id="未命名的渐变_23-2" x1="97.53" y1="698.45" x2="504.62" y2="698.45" xlink:href="#未命名的渐变_23"/><linearGradient id="未命名的渐变_23-3" x1="386.11" y1="699.75" x2="916.72" y2="699.75" xlink:href="#未命名的渐变_23"/><linearGradient id="未命名的渐变_23-4" x1="313.8" y1="529.08" x2="1012.5" y2="144.74" xlink:href="#未命名的渐变_23"/><linearGradient id="未命名的渐变_23-5" x1="446.57" y1="711.39" x2="722.05" y2="711.39" xlink:href="#未命名的渐变_23"/><linearGradient id="未命名的渐变_23-6" x1="449.01" y1="298.55" x2="709.13" y2="298.55" xlink:href="#未命名的渐变_23"/><linearGradient id="未命名的渐变_23-7" x1="232.6" y1="298.01" x2="507.13" y2="298.01" xlink:href="#未命名的渐变_23"/><linearGradient id="未命名的渐变_23-8" x1="232.6" y1="710.27" x2="507.26" y2="710.27" xlink:href="#未命名的渐变_23"/><linearGradient id="未命名的渐变_23-9" x1="449.01" y1="204.17" x2="708.89" y2="204.17" xlink:href="#未命名的渐变_23"/><linearGradient id="未命名的渐变_23-10" x1="446.57" y1="604.43" x2="722.05" y2="604.43" xlink:href="#未命名的渐变_23"/><linearGradient id="未命名的渐变_23-11" x1="232.6" y1="603.67" x2="446.57" y2="603.67" xlink:href="#未命名的渐变_23"/><linearGradient id="未命名的渐变_23-12" x1="232.6" y1="386.45" x2="449.46" y2="386.45" xlink:href="#未命名的渐变_23"/></defs><title>kaleido1</title><polygon class="cls-1" points="515.38 0 879.81 150.95 1030.76 515.38 879.81 879.81 515.38 1030.76 150.95 879.81 0 515.38 150.95 150.95 515.38 0"/><polygon class="cls-2" points="385.95 473.46 97.53 513.09 505.88 104.75 385.95 473.46"/><polygon class="cls-3" points="385.95 473.46 504.62 923.44 97.53 513.09 385.95 473.46"/><polygon class="cls-4" points="386.11 473.49 916.72 516.55 507.26 926.01 386.11 473.49"/><polygon class="cls-5" points="386.13 473.48 507.13 101.48 511.37 105.72 921.28 515.63 920.1 516.82 386.13 473.48"/><polygon class="cls-6" points="660.48 496.76 446.57 698.45 507.26 926.01 722.05 712.03 660.48 496.76"/><polygon class="cls-7" points="709.13 303.48 660.48 495.62 449.01 279.74 507.13 101.48 709.13 303.48"/><polygon class="cls-8" points="232.59 494.53 449.01 279.74 507.13 101.48 297.75 312.88 232.59 494.53"/><polygon class="cls-9" points="446.57 698.45 232.59 494.53 295.46 712.8 507.26 926.01 446.57 698.45"/><polygon class="cls-10" points="449.01 279.74 708.89 305.17 506.89 103.17 449.01 279.74"/><polygon class="cls-11" points="446.57 698.45 722.05 712.03 660.48 496.83 446.57 698.45"/><polygon class="cls-12" points="295.46 712.8 446.57 698.45 232.59 494.53 295.46 712.8"/><polygon class="cls-13" points="449.46 278.36 232.59 494.53 297.75 312.88 449.46 278.36"/></svg>