<svg xmlns="http://www.w3.org/2000/svg" width="140" height="47">
  <path id="svg_1" fill="#313131" d="m128.851,0.00015l-117.696,0c-0.429,0 -0.8529,0 -1.28075,0.00235c-0.35818,0.00235 -0.7135,0.00918 -1.07512,0.01493c-0.7856,0.00928 -1.56935,0.07869 -2.34444,0.20763c-0.77401,0.13174 -1.52377,0.38012 -2.22392,0.73672c-0.6993,0.35962 -1.33827,0.82691 -1.89373,1.38492c-0.55837,0.55644 -1.02382,1.19961 -1.37845,1.90478c-0.3556,0.70376 -0.60218,1.45791 -0.73121,2.23639c-0.13026,0.7775 -0.20036,1.56397 -0.20966,2.35234c-0.01085,0.36026 -0.012,0.72171 -0.01772,1.08201l0,27.15918c0.00572,0.3648 0.00687,0.7183 0.01772,1.0832c0.00931,0.7883 0.0794,1.5748 0.20966,2.3522c0.12868,0.779 0.37527,1.5336 0.73121,2.2376c0.35447,0.7029 0.81998,1.3434 1.37845,1.8968c0.55335,0.5605 1.19274,1.0281 1.89373,1.3849c0.70015,0.3576 1.44982,0.6075 2.22392,0.7412c0.77522,0.1279 1.55889,0.1974 2.34444,0.2078c0.36162,0.008 0.71694,0.0126 1.07512,0.0126c0.42785,0.0023 0.85175,0.0023 1.28075,0.0023l117.696,0c0.421,0 0.848,0 1.268,-0.0023c0.357,0 0.723,-0.0046 1.079,-0.0126c0.784,-0.0099 1.566,-0.0793 2.34,-0.2078c0.777,-0.1347 1.529,-0.3845 2.232,-0.7412c0.701,-0.357 1.34,-0.8246 1.892,-1.3849c0.557,-0.5555 1.024,-1.1956 1.383,-1.8968c0.353,-0.7046 0.597,-1.4591 0.724,-2.2376c0.131,-0.7775 0.203,-1.5638 0.217,-2.3522c0.005,-0.3649 0.005,-0.7184 0.005,-1.0832c0.009,-0.4269 0.009,-0.8514 0.009,-1.2852l0,-24.5911c0,-0.4303 0,-0.8572 -0.009,-1.28288c0,-0.3603 0,-0.72175 -0.005,-1.08205c-0.014,-0.78845 -0.086,-1.57474 -0.217,-2.35235c-0.127,-0.77803 -0.371,-1.53212 -0.724,-2.23639c-0.722,-1.41343 -1.867,-2.56395 -3.275,-3.28975c-0.703,-0.35574 -1.456,-0.60405 -2.232,-0.73673c-0.774,-0.1295 -1.556,-0.19894 -2.34,-0.20769c-0.356,-0.00573 -0.722,-0.01262 -1.079,-0.01491c-0.42,-0.00235 -0.847,-0.00235 -1.268,-0.00235l0,0.00015z"/>
  <path id="svg_2" fill="white" d="m29.478128,23.8534c0.0126,-0.9807 0.272,-1.9423 0.754,-2.7953c0.4821,-0.853 1.1711,-1.5697 2.0031,-2.0834c-0.5285,-0.758 -1.2258,-1.3819 -2.0363,-1.822c-0.8106,-0.4401 -1.7122,-0.6843 -2.6332,-0.7132c-1.9646,-0.2071 -3.8692,1.1806 -4.8703,1.1806c-1.0205,0 -2.5619,-1.1601 -4.2217,-1.1258c-1.0737,0.0349 -2.12,0.3484 -3.0371,0.9101c-0.9171,0.5618 -1.6737,1.3525 -2.196,2.2952c-2.2627,3.9343 -0.5749,9.7166 1.5925,12.8968c1.0844,1.5573 2.3518,3.2968 4.0102,3.2351c1.6227,-0.0676 2.2288,-1.0392 4.1876,-1.0392c1.9407,0 2.5093,1.0392 4.2013,1c1.7413,-0.0284 2.8384,-1.5642 3.8848,-3.1362c0.7792,-1.1096 1.3787,-2.336 1.7765,-3.6337c-1.0117,-0.4297 -1.875,-1.149 -2.4823,-2.0682c-0.6074,-0.9192 -0.9319,-1.9976 -0.9331,-3.1008z"/>
  <path id="svg_3" fill="white" d="m26.282328,14.3479c0.9494,-1.1447 1.4172,-2.616 1.3039,-4.1014c-1.4505,0.153 -2.7904,0.8492 -3.7527,1.95c-0.4704,0.5378 -0.8308,1.1634 -1.0604,1.8411c-0.2296,0.6777 -0.3239,1.3942 -0.2776,2.1085c0.7255,0.0075 1.4433,-0.1504 2.0992,-0.4619c0.6559,-0.3115 1.233,-0.7684 1.6876,-1.3363z"/>
  <path stroke="null" id="svg_4" fill="white" d="m39.618976,18.954652l0,10.546093l4.193716,0c3.348813,0 5.263577,-1.936671 5.263577,-5.320569c0,-3.310706 -1.937943,-5.225524 -5.263577,-5.225524l-4.193716,0zm2.000016,1.629833l1.930163,0c2.193858,0 3.48836,1.322845 3.48836,3.624878c0,2.353372 -1.263544,3.661549 -3.48836,3.661549l-1.930163,0l0,-7.286427z"/>
  <path stroke="null" id="svg_6" fill="white" d="m72.027311,21.908822l-1.723051,0l-1.262609,5.856423l-0.118575,0l-1.478758,-5.856423l-1.653335,0l-1.464901,5.856423l-0.118575,0l-1.269466,-5.856423l-1.743909,0l2.064776,7.841938l1.799625,0l1.478901,-5.64855l0.118575,0l1.485759,5.64855l1.820626,0l2.064919,-7.841938z"/>
  <path stroke="null" id="svg_7" fill="white" d="m73.886836,29.500745l1.922966,0l0,-4.252062c0,-1.074635 0.721073,-1.755425 1.868501,-1.755425c1.170771,0 1.71352,0.560626 1.71352,1.675452l0,4.332034l1.922966,0l0,-4.72588c0,-1.742164 -1.031352,-2.72343 -2.923195,-2.72343c-1.263822,0 -2.116692,0.500612 -2.519864,1.314962l-0.131797,0l0,-1.168141l-1.853098,0l0,7.30249z"/>
  <path stroke="null" id="svg_8" fill="white" d="m84.599175,29.750759l1.961038,0l0,-10.407395l-1.961038,0l0,10.407395z"/>
  <path stroke="null" id="svg_10" fill="white" d="m103.133567,28.585499c-0.858238,0 -1.474712,-0.353364 -1.474712,-0.944542c0,-0.571963 0.507177,-0.893215 1.591679,-0.951122l1.92724,-0.102785l0,0.559065c0,0.816093 -0.873897,1.439383 -2.044207,1.439383zm-0.569495,1.253159c1.115661,0 2.051877,-0.398374 2.527895,-1.07957l0.132627,0l0,0.963888l1.864762,0l0,-4.800356c0,-1.490841 -1.232788,-2.371159 -3.425282,-2.371159c-2.028548,0 -3.440781,0.79043 -3.596737,2.030692l1.825613,0c0.179445,-0.475627 0.78809,-0.732655 1.677487,-0.732655c1.045513,0 1.607339,0.385608 1.607339,1.073121l0,0.591309l-2.200323,0.109234c-2.075367,0.102785 -3.237847,0.835308 -3.237847,2.107682c0,1.285271 1.17814,2.107814 2.824467,2.107814z"/>
  <path stroke="null" id="svg_11" fill="white" d="m113.322355,30.338687c1.177761,0 2.154151,-0.497043 2.634491,-1.337011l0.131709,0l0,1.210995l1.859632,0l0,-10.619292l-1.921677,0l0,4.1791l-0.131709,0c-0.449396,-0.839969 -1.410076,-1.344036 -2.572445,-1.344036c-2.138441,0 -3.486631,1.526108 -3.486631,3.948098c0,2.436039 1.340414,3.962147 3.486631,3.962147zm0.596656,-6.433167c1.317246,0 2.130824,0.951936 2.130824,2.478045c0,1.540015 -0.805803,2.478045 -2.130824,2.478045c-1.317246,0 -2.115273,-0.931005 -2.115273,-2.478045c0,-1.540015 0.805803,-2.478045 2.115273,-2.478045z"/>
  <path stroke="null" id="svg_13" fill="white" d="m55.624392,29.608145c2.296132,0 3.693484,-1.515043 3.693484,-4.028369c0,-2.506222 -1.404398,-4.028369 -3.693484,-4.028369c-2.282039,0 -3.69334,1.529252 -3.69334,4.028369c0,2.513326 1.390305,4.028369 3.69334,4.028369zm0,-1.47256c-1.21472,0 -1.909872,-0.934486 -1.909872,-2.555809c0,-1.614219 0.695152,-2.55581 1.909872,-2.55581c1.207817,0 1.90297,0.941591 1.90297,2.55581c0,1.621323 -0.68825,2.555809 -1.90297,2.555809z"/>
  <path stroke="null" id="svg_14" fill="white" d="m93.62649,30.358186c2.296132,0 3.693484,-1.515043 3.693484,-4.028369c0,-2.506222 -1.404398,-4.028369 -3.693484,-4.028369c-2.282039,0 -3.69334,1.529252 -3.69334,4.028369c0,2.513326 1.390305,4.028369 3.69334,4.028369zm0,-1.47256c-1.21472,0 -1.909872,-0.934486 -1.909872,-2.555809c0,-1.614219 0.695152,-2.55581 1.909872,-2.55581c1.207817,0 1.90297,0.941591 1.90297,2.55581c0,1.621323 -0.68825,2.555809 -1.90297,2.555809z"/>
</svg>