<svg data-name="Layer 1" xmlns="http://www.w3.org/2000/svg" viewBox="0 0 128 128"><path d="M72.13 113.28c5.81-1.87 17.6-7.3 21.09-21.14a3 3 0 00-5.79-1.36C84.56 102 75 106.25 70.34 107.66a2.95 2.95 0 101.79 5.62zm-5.08-42.06V20.81a3 3 0 10-6.07 0v50.41a3 3 0 006.07 0zm-31.61 0V20.81a3 3 0 10-6.06 0v50.41a3 3 0 006.06 0zm21.11 0V12.36a3 3 0 00-6.07 0v58.86a3 3 0 006.07 0zm-10.55 0V1a3 3 0 00-6.07 0v70.2a3 3 0 006.07 0z"/><path d="M71.25 40.28v6.2A39.07 39.07 0 0164.06 124a39.46 39.46 0 01-39.17-39.42V40.73a3 3 0 00-6.06 0v44.8a45.19 45.19 0 1052.42-45.25z"/></svg>