<svg version="1.1" id="Layer_1" xmlns="http://www.w3.org/2000/svg" x="0" y="0" viewBox="0 0 150 146" xml:space="preserve"><style>.st0{fill:#0fb}.st1{fill:#00cfab}</style><path class="st0" d="M73 60.5c-8.8 0-16-7.2-16-16C57 37.6 51.4 32 44.5 32c-3.3 0-6.5 1.3-8.8 3.7-6.2 6.2-16.4 6.2-22.6 0C6.8 29.4 6.8 19.3 13 13 21.4 4.6 32.6 0 44.5 0 69 0 88.9 20 88.9 44.5c0 8.8-7.1 16-15.9 16"/><path class="st1" d="M24 137.2c-4.2 0-8.4-1.6-11.5-4.9C4.4 124 0 113.1 0 101.5 0 77 19.9 57 44.5 57c8.8 0 16 7.2 16 16s-7.2 16-16 16C37.6 89 32 94.6 32 101.5c0 3.3 1.2 6.3 3.5 8.7 6.1 6.4 5.9 16.5-.4 22.6-3.1 3-7.1 4.4-11.1 4.4"/><path class="st0" d="M101.5 146c-24.5 0-44.4-20-44.4-44.5 0-8.8 7.2-16 16-16s16 7.2 16 16c0 6.9 5.6 12.5 12.5 12.5 3.4 0 6.6-1.3 9-3.8 6.2-6.3 16.3-6.5 22.6-.3 6.3 6.2 6.5 16.3.3 22.6-8.5 8.7-19.8 13.5-32 13.5"/><path class="st1" d="M44.5 146c-12.2 0-23.6-4.8-32-13.6-6.1-6.4-5.9-16.5.4-22.6 6.4-6.1 16.5-5.9 22.6.4 2.4 2.5 5.6 3.8 9 3.8 6.9 0 12.5-5.6 12.5-12.5 0-8.8 7.2-16 16-16s16 7.2 16 16C88.9 126 69 146 44.5 146M73 60.5c-8.8 0-16-7.2-16-16C57.1 20 77 0 101.5 0c9.6 0 18.8 3 26.5 8.8 7.1 5.3 8.6 15.3 3.3 22.4-5.3 7.1-15.3 8.6-22.4 3.3-1.5-1.1-4-2.5-7.4-2.5C94.6 32 89 37.6 89 44.5c0 8.8-7.1 16-16 16"/><path class="st1" d="M101.5 88.9c-8.8 0-16-7.2-16-16s7.2-16 16-16c6.9 0 12.5-5.6 12.5-12.5 0-4-1.8-7.6-5.1-10-7.1-5.3-8.6-15.3-3.3-22.4 5.4-7 15.4-8.5 22.5-3.2 11.2 8.4 17.9 21.7 17.9 35.7 0 24.5-19.9 44.4-44.5 44.4"/><path class="st0" d="M122 137.3c-4 0-8-1.5-11.1-4.5-6.3-6.2-6.5-16.3-.3-22.6 2.3-2.3 3.5-5.4 3.5-8.7 0-6.9-5.6-12.5-12.5-12.5-8.8 0-16-7.2-16-16s7.2-16 16-16c24.5 0 44.5 20 44.5 44.5 0 11.6-4.5 22.6-12.6 31-3.2 3.2-7.4 4.8-11.5 4.8M44.5 88.9C19.9 88.9 0 69 0 44.5c0-11.9 4.6-23 13-31.4 6.2-6.2 16.4-6.2 22.6 0 6.2 6.2 6.2 16.4 0 22.6-2.3 2.3-3.6 5.4-3.6 8.8C32 51.4 37.6 57 44.5 57c8.8 0 16 7.2 16 16s-7.2 15.9-16 15.9"/></svg>