<svg width="73" height="69" xmlns="http://www.w3.org/2000/svg"><g fill="none" fill-rule="evenodd"><path d="M9.25 28.958a5.5 5.5 0 01-.352 1.266L3.427 43.506a.5.5 0 00.187.609l32.26 21.213a.5.5 0 00.551 0l32.147-21.222a.5.5 0 00.188-.603L63.403 30.17a5.5 5.5 0 01-.32-1.134L58.81 3.743a.5.5 0 00-.86-.256L46.057 16.404a5.5 5.5 0 01-4.047 1.775H30.234a5.5 5.5 0 01-3.995-1.72L13.95 3.47a.5.5 0 00-.857.268L9.25 28.958z" stroke="#999" stroke-width="5"/><path fill="#CECECE" d="M9.337 45.004l26.865 17.66 26.022-17.29L46.5 38.36l-8.686 10.484-10.851-9.774z"/><path d="M3.207 43.869l22.746-5.445a1 1 0 011.001.332l8.684 10.423a1 1 0 001.586-.065l7.216-10.271a1 1 0 011.063-.395l21.432 5.421" stroke="#999" stroke-width="5"/></g></svg>