<svg xmlns="http://www.w3.org/2000/svg" xml:space="preserve" height="27" width="26" id="Layer_1" version="1.1"><style id="style2" type="text/css"/><path d="M13.229.458c-7.168 0-13 5.831-13 13 0 7.168 5.832 13 13 13s13-5.832 13-13c0-7.169-5.832-13-13-13zm4.58 8.758a.237.237 0 01-.237.237h-5.248v2.267h3.931c.131 0 .238.106.238.237v1.818c0 .13-.107.237-.238.237h-3.931v1.818h1.146c.13 0 .237.106.237.237v1.422a.237.237 0 01-.237.237h-1.146v1.395a.237.237 0 01-.237.237h-1.818a.237.237 0 01-.237-.237v-1.395H8.886a.237.237 0 01-.237-.237v-1.422c0-.131.106-.237.237-.237h1.146V7.399c0-.131.106-.237.237-.237h7.303c.13 0 .237.106.237.237z" id="Shape" fill="#003945" fill-rule="nonzero"/></svg>