<svg xmlns="http://www.w3.org/2000/svg" width="140" height="47"><path fill="#313131" d="M128.851 0H11.155c-.429 0-.853 0-1.28.003-.359.002-.714.009-1.076.014-.785.01-1.57.08-2.344.208A7.533 7.533 0 00.959 4.251a7.78 7.78 0 00-.732 2.237c-.13.777-.2 1.564-.21 2.352-.01.36-.011.722-.017 1.082v27.16c.006.364.007.718.018 1.083.009.788.08 1.574.21 2.352.128.779.375 1.533.73 2.237.355.703.82 1.344 1.379 1.897a7.34 7.34 0 001.894 1.385c.7.358 1.45.608 2.224.741a15.61 15.61 0 002.344.208c.362.008.717.013 1.075.013.428.002.852.002 1.281.002h117.696c.421 0 .848 0 1.268-.002.357 0 .723-.005 1.079-.013.784-.01 1.566-.08 2.34-.208a7.923 7.923 0 002.232-.74 7.318 7.318 0 001.892-1.386 7.518 7.518 0 001.383-1.897 7.794 7.794 0 00.724-2.237 15.85 15.85 0 00.217-2.352c.005-.365.005-.719.005-1.084.009-.426.009-.851.009-1.285v-24.59c0-.431 0-.858-.009-1.284 0-.36 0-.722-.005-1.082a15.853 15.853 0 00-.217-2.352 7.792 7.792 0 00-.724-2.237 7.577 7.577 0 00-3.275-3.29 7.89 7.89 0 00-2.232-.736 15.206 15.206 0 00-2.34-.208c-.356-.005-.722-.012-1.079-.015-.42-.002-.847-.002-1.268-.002z"/><path stroke="null" fill="#fff" d="M39.619 18.955V29.5h4.194c3.349 0 5.263-1.937 5.263-5.32 0-3.312-1.938-5.226-5.263-5.226h-4.194zm2 1.63h1.93c2.194 0 3.489 1.322 3.489 3.624 0 2.354-1.264 3.662-3.489 3.662h-1.93v-7.287zm30.408 1.324h-1.723l-1.262 5.856h-.119l-1.479-5.856h-1.653l-1.465 5.856h-.118l-1.27-5.856h-1.744l2.065 7.842h1.8l1.478-5.649h.119l1.486 5.649h1.82l2.065-7.842zm1.86 7.591h1.923v-4.25c0-1.075.72-1.756 1.868-1.756 1.171 0 1.714.56 1.714 1.676v4.33h1.923v-4.726c0-1.742-1.032-2.724-2.923-2.724-1.264 0-2.117.501-2.52 1.315h-.132v-1.168h-1.853V29.5zm10.713.25h1.96V19.344H84.6v10.408zm18.534-1.165c-.859 0-1.475-.353-1.475-.944 0-.572.507-.893 1.592-.951l1.927-.103v.56c0 .815-.874 1.438-2.044 1.438zm-.57 1.254c1.116 0 2.052-.399 2.528-1.08h.133v.964h1.864v-4.8c0-1.491-1.232-2.372-3.425-2.372-2.028 0-3.44.79-3.597 2.031h1.826c.18-.475.788-.733 1.677-.733 1.046 0 1.608.386 1.608 1.074v.59l-2.2.11c-2.076.103-3.238.835-3.238 2.108 0 1.285 1.178 2.108 2.824 2.108zm10.758.5c1.178 0 2.155-.497 2.635-1.337h.132v1.21h1.86V19.594h-1.922v4.18h-.132c-.45-.84-1.41-1.345-2.573-1.345-2.138 0-3.486 1.527-3.486 3.949 0 2.436 1.34 3.962 3.486 3.962zm.597-6.433c1.317 0 2.13.951 2.13 2.478 0 1.54-.805 2.478-2.13 2.478-1.317 0-2.115-.931-2.115-2.478 0-1.54.806-2.478 2.115-2.478zm-58.295 5.702c2.297 0 3.694-1.515 3.694-4.028 0-2.506-1.405-4.029-3.694-4.029-2.282 0-3.693 1.53-3.693 4.029 0 2.513 1.39 4.028 3.693 4.028zm0-1.472c-1.214 0-1.91-.935-1.91-2.556 0-1.614.696-2.556 1.91-2.556 1.208 0 1.903.942 1.903 2.556 0 1.621-.688 2.556-1.903 2.556zm38.002 2.222c2.297 0 3.694-1.515 3.694-4.028 0-2.506-1.404-4.029-3.694-4.029-2.282 0-3.693 1.53-3.693 4.029 0 2.513 1.39 4.028 3.693 4.028zm0-1.472c-1.214 0-1.91-.935-1.91-2.556 0-1.614.696-2.556 1.91-2.556 1.208 0 1.903.942 1.903 2.556 0 1.621-.688 2.556-1.903 2.556z"/><path stroke="null" fill="#fff" d="M10.08-28.365a.588.588 0 01-.597-.58c0-.32.266-.58.596-.58.33 0 .597.259.597.58 0 .32-.267.58-.597.58h0zm-4.773 0a.588.588 0 01-.597-.58c0-.32.267-.58.597-.58.33 0 .596.259.596.58 0 .32-.266.58-.596.58h0zm5.125-2.325l.222-.327.223-.322.495-.725a.19.19 0 00-.056-.268.2.2 0 00-.274.055l-.756 1.101-.227.332a6.695 6.695 0 00-2.366-.423 6.7 6.7 0 00-2.366.423l-.226-.332-.223-.326-.532-.775a.204.204 0 00-.276-.055.191.191 0 00-.056.268l.496.725.222.322.223.327c-1.687.765-2.83 2.215-2.83 3.875h11.136c0-1.66-1.142-3.11-2.829-3.875h0zM2.21-26.042h-.085v8.516c0 .676.564 1.227 1.26 1.227h.908a1.09 1.09 0 00-.048.322v2.452c0 .64.535 1.16 1.194 1.16.658 0 1.193-.52 1.193-1.16v-2.452c0-.113-.018-.22-.048-.322H8.8a1.13 1.13 0 00-.047.322v2.452c0 .64.534 1.16 1.192 1.16.66 0 1.195-.52 1.195-1.16v-2.452c0-.113-.018-.22-.05-.322H12c.697 0 1.26-.55 1.26-1.227v-8.516H2.21h0zm-2.074 0c-.66 0-1.194.52-1.194 1.16v4.97c0 .64.534 1.16 1.194 1.16.658 0 1.192-.52 1.192-1.16v-4.97c0-.64-.534-1.16-1.192-1.16zm15.114 0c-.66 0-1.194.52-1.194 1.16v4.97c0 .64.534 1.16 1.194 1.16.658 0 1.192-.52 1.192-1.16v-4.97c0-.64-.534-1.16-1.192-1.16z" transform="matrix(1.21622 0 0 1.3412 13.891 53.745)"/></svg>