<svg data-name="图层 1" xmlns="http://www.w3.org/2000/svg" xmlns:xlink="http://www.w3.org/1999/xlink" viewBox="0 0 1030.76 1030.76"><defs><linearGradient id="a" x1="97.53" y1="308.92" x2="505.88" y2="308.92" gradientUnits="userSpaceOnUse"><stop offset="0" stop-color="#fff"/><stop offset="1" stop-color="#fff" stop-opacity="0"/></linearGradient><linearGradient id="g" x1="449.01" y1="298.55" x2="709.13" y2="298.55" xlink:href="#a"/><linearGradient id="c" x1="97.53" y1="698.45" x2="504.62" y2="698.45" xlink:href="#a"/><linearGradient id="d" x1="386.11" y1="699.75" x2="916.72" y2="699.75" xlink:href="#a"/><linearGradient id="e" x1="313.8" y1="529.08" x2="1012.5" y2="144.74" xlink:href="#a"/><linearGradient id="f" x1="446.57" y1="711.39" x2="722.05" y2="711.39" xlink:href="#a"/><linearGradient id="b" x1="-768.25" y1="1691.73" x2="1313.34" y2="-215.89" gradientUnits="userSpaceOnUse"><stop offset="0" stop-color="#fff"/><stop offset="1" stop-color="#231815"/></linearGradient><linearGradient id="h" x1="232.6" y1="298.01" x2="507.13" y2="298.01" xlink:href="#a"/><linearGradient id="i" x1="232.6" y1="710.27" x2="507.26" y2="710.27" xlink:href="#a"/><linearGradient id="j" x1="449.01" y1="204.17" x2="708.89" y2="204.17" xlink:href="#a"/><linearGradient id="k" x1="446.57" y1="604.43" x2="722.05" y2="604.43" xlink:href="#a"/><linearGradient id="l" x1="232.6" y1="603.67" x2="446.57" y2="603.67" xlink:href="#a"/><linearGradient id="m" x1="232.6" y1="386.45" x2="449.46" y2="386.45" xlink:href="#a"/></defs><path fill="url(#b)" d="M515.38 0l364.43 150.95 150.95 364.43-150.95 364.43-364.43 150.95-364.43-150.95L0 515.38l150.95-364.43L515.38 0z"/><path fill="url(#a)" opacity=".4" d="M385.95 473.46L97.53 513.09l408.35-408.34-119.93 368.71z"/><path opacity=".1" fill="url(#c)" d="M385.95 473.46l118.67 449.98L97.53 513.09l288.42-39.63z"/><path fill="url(#d)" opacity=".4" d="M386.11 473.49l530.61 43.06-409.46 409.46-121.15-452.52z"/><path opacity=".8" fill="url(#e)" d="M386.13 473.48l121-372 4.24 4.24 409.91 409.91-1.18 1.19-533.97-43.34z"/><path opacity=".3" fill="url(#f)" d="M660.48 496.76L446.57 698.45l60.69 227.56 214.79-213.98-61.57-215.27z"/><path fill="url(#g)" d="M709.13 303.48l-48.65 192.14-211.47-215.88 58.12-178.26 202 202z"/><path fill="url(#h)" opacity=".4" d="M232.59 494.53l216.42-214.79 58.12-178.26-209.38 211.4-65.16 181.65z"/><path opacity=".2" fill="url(#i)" d="M446.57 698.45L232.59 494.53l62.87 218.27 211.8 213.21-60.69-227.56z"/><path fill="url(#j)" opacity=".6" d="M449.01 279.74l259.88 25.43-202-202-57.88 176.57z"/><path fill="url(#k)" opacity=".6" d="M446.57 698.45l275.48 13.58-61.57-215.2-213.91 201.62z"/><path opacity=".02" fill="url(#l)" d="M295.46 712.8l151.11-14.35-213.98-203.92 62.87 218.27z"/><path opacity=".04" fill="url(#m)" d="M449.46 278.36L232.59 494.53l65.16-181.65 151.71-34.52z"/></svg>